<?xml version="1.0" encoding="utf-8"?>
<!-- Generator: Adobe Illustrator 18.1.1, SVG Export Plug-In . SVG Version: 6.00 Build 0)  -->
<svg version="1.1" id="Layer_1" xmlns="http://www.w3.org/2000/svg" xmlns:xlink="http://www.w3.org/1999/xlink" x="0px" y="0px"
	 viewBox="0 0 367.9 413.2" enable-background="new 0 0 367.9 413.2" xml:space="preserve">
<g>
	<g>
		<path fill="#679BD2" d="M5.4,309c-4.7-3.9-5.2-9.6-5.2-14.9c-0.2-58.3-0.3-116.6,0-174.9c0.1-11.8,5.7-21.7,16.1-27.7
			c49.9-29,100-57.8,150-86.5c11.6-6.6,23.6-6.7,35.2,0c49.8,28.5,99.5,57.3,149.2,85.9c5.3,3.1,9.6,7.1,12.2,12.7
			c-24.4,14-48.7,28-73.1,42.1c-0.6-1.2-1-2.4-1.7-3.6c-24.8-41.5-75.7-64.6-124.8-56.2C105.3,96,62.6,144.8,61.2,204.7
			c-0.5,22.7,5.5,44,16.8,63.8c-1.4,0.6-2.8,1-4.1,1.7c-14.3,8.2-28.5,16.5-42.8,24.6C22.6,299.6,14.6,305.3,5.4,309z"/>
		<path fill="#1A4781" d="M5.4,309c9.2-3.6,17.2-9.3,25.7-14.1c14.4-8.1,28.6-16.4,42.8-24.6c1.3-0.7,2.7-1.2,4.1-1.7
			c0.5,0.7,1,1.3,1.4,2c29.5,46.9,83.6,68.5,137.1,54c32-8.7,56.2-27.9,73.6-55.9c5.7,1.6,10.3,5.2,15.3,8
			c19.3,10.9,38.4,22,57.6,33c-2.5,5.7-6.8,9.7-12.1,12.7c-49.5,28.5-99,57-148.5,85.5c-12.3,7.1-24.6,6.9-36.8-0.1
			c-49.1-28.3-98.1-56.5-147.2-84.8C12.6,319.7,6.9,316.2,5.4,309z"/>
		<path fill="#025A9D" d="M363,309.7c-19.2-11-38.4-22.1-57.6-33c-5-2.8-9.7-6.4-15.3-8c-0.1-1.1-0.9-1.6-1.8-2.2
			c-16.2-9.3-32.4-18.6-48.5-28c-1.2-0.7-2.2-1.4-3.6-0.5c-0.7-1.9-2.6-2.6-4.1-3.5c-9.7-5.7-19.6-11.1-29.2-16.9
			c-6-3.6-12.8-6.2-18.1-11.1c17.4-10.9,35.2-20.9,53.2-30.7c17.3-10,34.6-20.1,51.9-30.1c24.4-14,48.7-28,73.1-42.1
			c3.4,5.1,4.9,10.8,4.9,16.9c0,57.4,0,114.9,0,172.3C367.9,298.9,366.5,304.6,363,309.7z M265.7,206.4c0,7.3,0,7.3,7.3,7.3
			c0.7,0,1.3,0.1,2,0c3.4-0.6,4.1,1,4,4.2c-0.1,9.7,0.1,9.5,9.7,9.6c3.8,0.1,4.3-1.4,4.2-4.7c-0.1-9,0-9,8.9-9.1
			c1.6,0,4.3,0.8,4.5-0.8c0.6-4.1,0.9-8.4-0.1-12.3c-0.5-2-4.2-0.8-6.4-0.8c-7-0.1-7-0.1-7-7.1c0-1.3,0-2.7,0-4c0-0.8,0.2-2-0.7-2.2
			c-3.9-0.8-8.1-1-11.8,0c-2.8,0.7-1.2,4-1.3,6.1c-0.2,7.1-0.1,7.1-7,7.1C265.7,199.6,265.7,199.6,265.7,206.4z M357.8,206.2
			c-0.9-2.2,2.4-6.9-4.2-6.7c-9.2,0.3-9.3,0-9.4-9.6c0-3-0.8-4-3.9-4c-10.1-0.1-10.2-0.2-10.2,9.6c0,3.2-0.7,4.2-4.1,4.2
			c-9.4-0.1-9.3,0.1-9.4,9.7c0,3,0.5,4.3,4,4.3c9.1-0.1,9.1,0.1,9.4,9.6c0,1.3-0.6,3.4,0.9,3.5c3.9,0.4,8.1,1,11.9,0
			c2.6-0.7,1.2-4.4,1.2-6.7c0.2-6.6,0.1-6.6,6.7-6.6C357.8,213.6,357.8,213.6,357.8,206.2z"/>
		<path fill="#FFFFFF" d="M236.1,237.9c1.4-0.9,2.4-0.1,3.6,0.5c16.2,9.4,32.3,18.7,48.5,28c0.9,0.5,1.6,1.1,1.8,2.2
			c-17.4,28.1-41.6,47.3-73.6,55.9c-53.4,14.5-107.6-7.1-137.1-54c-0.4-0.7-0.9-1.4-1.4-2c-11.3-19.8-17.3-41-16.8-63.8
			c1.4-59.9,44-108.8,102.2-118.8c49.1-8.5,99.9,14.7,124.8,56.2c0.7,1.1,1.1,2.4,1.7,3.6c-17.3,10-34.6,20.1-51.9,30.1
			c-2.3-0.4-2.8-2.6-4-4.2c-14.8-19.5-34.3-28.5-58.8-25.1c-43.2,6.1-65.7,53.7-43.5,91.2c3.5,6.3,8.3,11.5,13.9,16.1
			C173.8,277.3,218.9,269.4,236.1,237.9z"/>
		<path fill="#679BD2" d="M131.7,237.7c-22.2-37.5,0.3-85.1,43.5-91.2c24.4-3.5,43.9,5.6,58.8,25.1c1.2,1.5,1.7,3.7,4,4.2
			c-18,9.8-35.8,19.9-53.2,30.7c-12,6.8-24,13.6-35.8,20.6C143.2,230.5,136.8,233.1,131.7,237.7z"/>
		<path fill="#1A4781" d="M131.7,237.7c5.1-4.7,11.4-7.2,17.3-10.7c11.9-7,23.9-13.7,35.8-20.6c5.3,4.9,12,7.4,18.1,11.1
			c9.6,5.8,19.5,11.2,29.2,16.9c1.5,0.9,3.4,1.6,4.1,3.5c-17.3,31.4-62.3,39.4-90.6,16C140,249.3,135.2,244.1,131.7,237.7z"/>
		<path fill="#F6F8FB" d="M265.7,206.4c0-6.7,0-6.7,6.4-6.8c6.9,0,6.8,0,7-7.1c0.1-2.1-1.6-5.5,1.3-6.1c3.8-0.9,7.9-0.7,11.8,0
			c0.9,0.2,0.7,1.4,0.7,2.2c0,1.3,0,2.7,0,4c0,7.1,0,7,7,7.1c2.2,0,5.9-1.2,6.4,0.8c0.9,3.9,0.6,8.3,0.1,12.3
			c-0.2,1.6-2.9,0.8-4.5,0.8c-8.9,0.1-9,0.1-8.9,9.1c0,3.2-0.4,4.7-4.2,4.7c-9.6-0.1-9.7,0.1-9.7-9.6c0-3.1-0.6-4.7-4-4.2
			c-0.6,0.1-1.3,0-2,0C265.7,213.6,265.7,213.6,265.7,206.4z"/>
		<path fill="#F6F8FB" d="M357.8,206.2c0,7.5,0,7.5-7.1,7.5c-6.6,0-6.5,0-6.7,6.6c-0.1,2.3,1.4,6-1.2,6.7c-3.7,0.9-7.9,0.4-11.9,0
			c-1.5-0.2-0.9-2.3-0.9-3.5c-0.3-9.5-0.3-9.7-9.4-9.6c-3.5,0-4-1.3-4-4.3c0.1-9.7-0.1-9.8,9.4-9.7c3.4,0,4.1-1,4.1-4.2
			c-0.1-9.8,0.1-9.7,10.2-9.6c3.1,0,3.9,1,3.9,4c0.1,9.6,0.2,9.9,9.4,9.6C360.3,199.3,356.9,203.9,357.8,206.2z"/>
	</g>
</g>
</svg>
