<?xml version="1.0" encoding="utf-8"?>
<!-- Generator: Adobe Illustrator 18.1.1, SVG Export Plug-In . SVG Version: 6.00 Build 0)  -->
<svg version="1.1" id="Layer_1" xmlns="http://www.w3.org/2000/svg" xmlns:xlink="http://www.w3.org/1999/xlink" x="0px" y="0px"
	 viewBox="19.5 0.1 2774.9 3116.1" enable-background="new 19.5 0.1 2774.9 3116.1" xml:space="preserve">
<g>
	<g>
		<path fill="#679BD2" d="M60.1,2330.7c-35.5-29.4-39.2-72.4-39.2-112.4c-1.5-439.7-2.3-879.5,0-1319.2c0.8-89,43-163.7,121.4-208.9
			c376.4-218.7,754.3-436,1131.4-652.5c87.5-49.8,178-50.5,265.5,0c375.6,215,750.5,432.2,1125.4,647.9c40,23.4,72.4,53.6,92,95.8
			c-184,105.6-367.3,211.2-551.4,317.6c-4.5-9.1-7.5-18.1-12.8-27.2c-187.1-313-571-487.3-941.3-423.9
			C813.6,724.1,491.6,1092.2,481,1544c-3.8,171.2,41.5,331.9,126.7,481.2c-10.6,4.5-21.1,7.5-30.9,12.8
			c-107.9,61.9-215,124.5-322.8,185.6C189.8,2259.8,129.5,2302.8,60.1,2330.7z"/>
		<path fill="#1A4781" d="M60.1,2330.7c69.4-27.2,129.7-70.1,193.9-106.4c108.6-61.1,215.7-123.7,322.8-185.6
			c9.8-5.3,20.4-9.1,30.9-12.8c3.8,5.3,7.5,9.8,10.6,15.1c222.5,353.8,630.6,516.7,1034.1,407.3c241.4-65.6,423.9-210.4,555.2-421.6
			c43,12.1,77.7,39.2,115.4,60.3c145.6,82.2,289.6,165.9,434.5,248.9c-18.9,43-51.3,73.2-91.3,95.8
			c-373.4,215-746.7,429.9-1120.1,644.9c-92.8,53.6-185.6,52-277.6-0.8c-370.4-213.5-740-426.2-1110.3-639.6
			C114.4,2411.5,71.4,2385.1,60.1,2330.7z"/>
		<path fill="#025A9D" d="M2757.4,2336c-144.8-83-289.6-166.7-434.5-248.9c-37.7-21.1-73.2-48.3-115.4-60.3
			c-0.8-8.3-6.8-12.1-13.6-16.6c-122.2-70.1-244.4-140.3-365.8-211.2c-9.1-5.3-16.6-10.6-27.2-3.8c-5.3-14.3-19.6-19.6-30.9-26.4
			c-73.2-43-147.8-83.7-220.3-127.5c-45.3-27.2-96.5-46.8-136.5-83.7c131.2-82.2,265.5-157.6,401.3-231.6
			c130.5-75.4,261-151.6,391.5-227c184-105.6,367.3-211.2,551.4-317.6c25.6,38.5,37,81.5,37,127.5c0,433,0,866.7,0,1299.6
			C2794.4,2254.6,2783.8,2297.6,2757.4,2336z M2023.5,1556.8c0,55.1,0,55.1,55.1,55.1c5.3,0,9.8,0.8,15.1,0
			c25.6-4.5,30.9,7.5,30.2,31.7c-0.8,73.2,0.8,71.7,73.2,72.4c28.7,0.8,32.4-10.6,31.7-35.5c-0.8-67.9,0-67.9,67.1-68.6
			c12.1,0,32.4,6,33.9-6c4.5-30.9,6.8-63.4-0.8-92.8c-3.8-15.1-31.7-6-48.3-6c-52.8-0.8-52.8-0.8-52.8-53.6c0-9.8,0-20.4,0-30.2
			c0-6,1.5-15.1-5.3-16.6c-29.4-6-61.1-7.5-89,0c-21.1,5.3-9.1,30.2-9.8,46c-1.5,53.6-0.8,53.6-52.8,53.6
			C2023.5,1505.6,2023.5,1505.6,2023.5,1556.8z M2718.2,1555.3c-6.8-16.6,18.1-52-31.7-50.5c-69.4,2.3-70.1,0-70.9-72.4
			c0-22.6-6-30.2-29.4-30.2c-76.2-0.8-76.9-1.5-76.9,72.4c0,24.1-5.3,31.7-30.9,31.7c-70.9-0.8-70.1,0.8-70.9,73.2
			c0,22.6,3.8,32.4,30.2,32.4c68.6-0.8,68.6,0.8,70.9,72.4c0,9.8-4.5,25.6,6.8,26.4c29.4,3,61.1,7.5,89.8,0
			c19.6-5.3,9.1-33.2,9.1-50.5c1.5-49.8,0.8-49.8,50.5-49.8C2718.2,1611.2,2718.2,1611.2,2718.2,1555.3z"/>
		<path fill="#FFFFFF" d="M1800.2,1794.4c10.6-6.8,18.1-0.8,27.2,3.8c122.2,70.9,243.6,141.1,365.8,211.2
			c6.8,3.8,12.1,8.3,13.6,16.6c-131.2,212-313.8,356.8-555.2,421.6C1248.9,2557,840,2394.1,617.5,2040.3c-3-5.3-6.8-10.6-10.6-15.1
			C521.7,1875.9,476.5,1716,480.2,1544c10.6-451.8,331.9-820.7,770.9-896.1c370.4-64.1,753.5,110.9,941.3,423.9
			c5.3,8.3,8.3,18.1,12.8,27.2c-130.5,75.4-261,151.6-391.5,227c-17.3-3-21.1-19.6-30.2-31.7c-111.6-147.1-258.7-215-443.5-189.3
			c-325.9,46-495.6,405.1-328.1,687.9c26.4,47.5,62.6,86.7,104.8,121.4C1330.3,2091.6,1670.5,2032,1800.2,1794.4z"/>
		<path fill="#679BD2" d="M1012.8,1792.9c-167.5-282.9,2.3-641.9,328.1-687.9c184-26.4,331.1,42.2,443.5,189.3
			c9.1,11.3,12.8,27.9,30.2,31.7c-135.8,73.9-270,150.1-401.3,231.6c-90.5,51.3-181,102.6-270,155.4
			C1099.5,1738.6,1051.2,1758.2,1012.8,1792.9z"/>
		<path fill="#1A4781" d="M1012.8,1792.9c38.5-35.5,86-54.3,130.5-80.7c89.8-52.8,180.3-103.3,270-155.4c40,37,90.5,55.8,136.5,83.7
			c72.4,43.7,147.1,84.5,220.3,127.5c11.3,6.8,25.6,12.1,30.9,26.4c-130.5,236.8-469.9,297.2-683.4,120.7
			C1075.4,1880.4,1039.2,1841.2,1012.8,1792.9z"/>
		<path fill="#F6F8FB" d="M2023.5,1556.8c0-50.5,0-50.5,48.3-51.3c52,0,51.3,0,52.8-53.6c0.8-15.8-12.1-41.5,9.8-46
			c28.7-6.8,59.6-5.3,89,0c6.8,1.5,5.3,10.6,5.3,16.6c0,9.8,0,20.4,0,30.2c0,53.6,0,52.8,52.8,53.6c16.6,0,44.5-9.1,48.3,6
			c6.8,29.4,4.5,62.6,0.8,92.8c-1.5,12.1-21.9,6-33.9,6c-67.1,0.8-67.9,0.8-67.1,68.6c0,24.1-3,35.5-31.7,35.5
			c-72.4-0.8-73.2,0.8-73.2-72.4c0-23.4-4.5-35.5-30.2-31.7c-4.5,0.8-9.8,0-15.1,0C2023.5,1611.2,2023.5,1611.2,2023.5,1556.8z"/>
		<path fill="#F6F8FB" d="M2718.2,1555.3c0,56.6,0,56.6-53.6,56.6c-49.8,0-49,0-50.5,49.8c-0.8,17.3,10.6,45.3-9.1,50.5
			c-27.9,6.8-59.6,3-89.8,0c-11.3-1.5-6.8-17.3-6.8-26.4c-2.3-71.7-2.3-73.2-70.9-72.4c-26.4,0-30.2-9.8-30.2-32.4
			c0.8-73.2-0.8-73.9,70.9-73.2c25.6,0,30.9-7.5,30.9-31.7c-0.8-73.9,0.8-73.2,76.9-72.4c23.4,0,29.4,7.5,29.4,30.2
			c0.8,72.4,1.5,74.7,70.9,72.4C2737.1,1503.3,2711.4,1538,2718.2,1555.3z"/>
	</g>
</g>
</svg>
