<?xml version="1.0" encoding="utf-8"?>
<!-- Generator: Adobe Illustrator 18.1.1, SVG Export Plug-In . SVG Version: 6.00 Build 0)  -->
<svg version="1.1" id="Layer_1" xmlns="http://www.w3.org/2000/svg" xmlns:xlink="http://www.w3.org/1999/xlink" x="0px" y="0px"
	 viewBox="19.2 -0.6 1813.4 2507.1" enable-background="new 19.2 -0.6 1813.4 2507.1" xml:space="preserve">
<g id="Layer_2" xmlns:rdf="http://www.w3.org/1999/02/22-rdf-syntax-ns#" xmlns:svg="http://www.w3.org/2000/svg" xmlns:ns="http://ns.adobe.com/SaveForWeb/1.0/" xmlns:xap="http://ns.adobe.com/xap/1.0/" xmlns:dc="http://purl.org/dc/elements/1.1/" xmlns:xapGImg="http://ns.adobe.com/xap/1.0/g/img/" xmlns:cc="http://web.resource.org/cc/" xmlns:ns0="http://ns.adobe.com/Variables/1.0/" xmlns:sodipodi="http://inkscape.sourceforge.net/DTD/sodipodi-0.dtd" xmlns:ns1="http://ns.adobe.com/Flows/1.0/" xmlns:inkscape="http://www.inkscape.org/namespaces/inkscape" sodipodi:version="0.32" sodipodi:docbase="/home/el/Documents/images/svg/Python" inkscape:export-xdpi="9" inkscape:export-ydpi="9" sodipodi:docname="python-powered-portrait.svg" inkscape:version="0.43" inkscape:export-filename="/home/el/Documents/images/svg/Python/python-powered-portrait-50.png">
	<g id="g10990">
		<path id="path46" fill="#646464" d="M321.8,2204.8c0-81.5-23.4-122.9-69.4-125.2c-18.1-0.8-36.2,2.3-53.6,9.1
			c-13.6,5.3-23.4,9.8-27.9,15.1v193.9c29.4,18.9,55.8,27.2,78.4,25.6C297.7,2319.4,321.8,2280.2,321.8,2204.8z M379.2,2207.8
			c0,41.5-9.8,75.4-29.4,102.6c-21.9,30.9-52,46.8-89.8,47.5c-28.7,0.8-58.8-8.3-89.8-27.2v175.7l-49.8-17.3v-390.7
			c8.3-9.8,18.9-18.9,31.7-25.6c29.4-17.3,65.6-26.4,107.9-26.4l0.8,0.8c38.5-0.8,68.6,15.1,89,47.5
			C369.4,2124.1,379.2,2161.8,379.2,2207.8z"/>
		<path id="path48" fill="#646464" d="M682.4,2323.2c0,55.1-5.3,93.5-16.6,114.7c-11.3,21.1-32.4,38.5-63.4,50.5
			c-25.6,9.8-52.8,15.1-82.2,16.6l-8.3-30.9c30.2-3.8,51.3-8.3,63.4-12.1c24.1-8.3,40.7-20.4,49.8-37.7c7.5-13.6,10.6-40,10.6-78.4
			V2333c-33.9,15.1-69.4,23.4-106.4,23.4c-24.1,0-46-7.5-64.9-23.4c-21.1-16.6-30.9-37.7-30.9-64.1v-206.7l49.8-17.3v208.2
			c0,21.9,6.8,39.2,21.1,51.3c14.3,12.1,33.2,18.1,55.8,17.3c22.6-0.8,46.8-9.1,73.2-26.4v-242.1h49.8v270H682.4z"/>
		<path id="path50" fill="#646464" d="M875.5,2355.6c-6,0.8-11.3,0.8-16.6,0.8c-27.9,0-49.8-6.8-65.6-20.4
			c-15.8-13.6-23.4-31.7-23.4-55.8v-195.4h-33.9v-30.9h33.9v-83l49.8-17.3v100.3h55.8v30.9h-55.8v193.9c0,18.9,5.3,31.7,15.1,39.2
			c8.3,6,21.9,9.8,40.7,10.6L875.5,2355.6L875.5,2355.6z"/>
		<path id="path52" fill="#646464" d="M1176.4,2351.1h-49.8v-191.6c0-19.6-4.5-36.2-13.6-50.5c-10.6-15.8-24.9-24.1-43.7-24.1
			c-22.6,0-51.3,12.1-85.2,36.2v229.3h-49.8v-457.1l49.8-15.8v208.2c31.7-23.4,66.4-34.7,104.1-34.7c26.4,0,47.5,9.1,64.1,26.4
			c16.6,17.3,24.1,40,24.1,65.6L1176.4,2351.1L1176.4,2351.1z"/>
		<path id="path54" fill="#646464" d="M1439.7,2196.5c0-30.9-6-56.6-17.3-76.9c-14.3-24.9-35.5-37.7-64.9-39.2
			c-54.3,3-81.5,42.2-81.5,116.9c0,33.9,5.3,62.6,17.3,86c14.3,29.4,36.2,43.7,65.6,43C1412.5,2325.5,1439.7,2282.5,1439.7,2196.5z
			 M1494,2197.2c0,44.5-11.3,81.5-33.9,110.9c-24.9,33.2-59.6,49.8-103.3,49.8c-43.7,0-77.7-16.6-101.8-49.8
			c-21.9-29.4-33.2-66.4-33.2-110.9c0-41.5,12.1-76.9,36.2-105.6c25.6-30.2,58.8-45.3,99.6-45.3c41.5,0,74.7,15.1,100.3,45.3
			C1481.9,2120.3,1494,2155.7,1494,2197.2z"/>
		<path id="path56" fill="#646464" d="M1778.4,2351.1h-49.8V2149c0-21.9-6.8-39.2-20.4-52c-13.6-12.1-30.9-18.1-53.6-18.1
			c-23.4,0.8-46,8.3-67.1,23.4v248.9h-49.8v-255.7c28.7-21.1,55.1-34.7,78.4-40.7c22.6-6,42.2-9.1,59.6-9.1
			c12.1,0,22.6,1.5,33.2,3.8c19.6,4.5,35.5,12.8,47.5,24.9c13.6,13.6,20.4,30.2,20.4,49v227.8H1778.4z"/>
	</g>
</g>
<g id="g7640" transform="translate(638.5845,497.4187)">
	<g id="g8691" transform="matrix(1.772991,0,0,1.772991,-1062.907,-953.6594)">
		
			<linearGradient id="path7990_1_" gradientUnits="userSpaceOnUse" x1="385.4954" y1="405.6172" x2="268.433" y2="404.6866" gradientTransform="matrix(20.3383 0 0 20.3383 -6832.2983 -7609.7051)">
			<stop  offset="0" style="stop-color:#366A96"/>
			<stop  offset="1" style="stop-color:#3679B0"/>
		</linearGradient>
		<path id="path7990" fill="url(#path7990_1_)" d="M514.1,394.4c0-70.9,18.9-108.6,123.7-127.5c70.9-12.1,162.2-14.3,246.7,0
			c67.1,11.3,123.7,61.1,123.7,127.5v233.1c0,67.9-55.1,124.5-123.7,124.5H637.8c-83.7,0-153.9,71.7-153.9,152.4v111.6h-85.2
			c-71.7,0-113.1-52-131.2-124.5c-23.4-97.3-22.6-155.4,0-248.2c19.6-81.5,82.2-124.5,153.9-124.5h92.8h246.7v-30.9H514.1V394.4
			L514.1,394.4z"/>
		
			<linearGradient id="path7992_1_" gradientUnits="userSpaceOnUse" x1="398.5222" y1="418.4299" x2="166.7946" y2="418.4299" gradientTransform="matrix(20.3383 0 0 20.3383 -6832.2983 -7609.7051)">
			<stop  offset="0" style="stop-color:#FFC836"/>
			<stop  offset="1" style="stop-color:#FFE873"/>
		</linearGradient>
		<path id="path7992" fill="url(#path7992_1_)" d="M1007.4,1138.9c0,70.9-61.1,106.4-123.7,124.5c-93.5,27.2-168.2,22.6-246.7,0
			c-64.9-18.9-123.7-58.1-123.7-124.5V905.8c0-67.1,55.8-124.5,123.7-124.5h246.7c82.2,0,153.9-70.9,153.9-155.4V518.9h92.8
			c71.7,0,105.6,53.6,123.7,124.5c24.9,98.1,25.6,172,0,248.2c-24.9,74.7-51.3,124.5-123.7,124.5h-123.7H760.7v30.9h246.7V1138.9z"
			/>
		<path id="path7994" fill="#FFFFFF" d="M575.9,379.3c0-25.6,20.4-46.8,46-46.8s46,21.1,46,46.8c0,25.6-20.4,46.8-46,46.8
			C596.3,425.3,575.9,405,575.9,379.3z"/>
		<path id="path7996" fill="#FFFFFF" d="M853.5,1154.7c0-25.6,20.4-46.8,46-46.8c25.6,0,46,21.1,46,46.8c0,25.6-20.4,46.8-46,46.8
			C874.6,1201.5,853.5,1180.4,853.5,1154.7z"/>
	</g>
</g>
</svg>
