<?xml version="1.0" encoding="utf-8"?>
<!-- Generator: Adobe Illustrator 18.1.1, SVG Export Plug-In . SVG Version: 6.00 Build 0)  -->
<svg version="1.1" xmlns="http://www.w3.org/2000/svg" xmlns:xlink="http://www.w3.org/1999/xlink" x="0px" y="0px"
	 viewBox="0 0 240.5 332.4" enable-background="new 0 0 240.5 332.4" xml:space="preserve">
<g id="Layer_2" inkscape:export-ydpi="9" inkscape:export-xdpi="9" inkscape:export-filename="/home/el/Documents/images/svg/Python/python-powered-portrait-50.png" sodipodi:docbase="/home/el/Documents/images/svg/Python" inkscape:version="0.43" sodipodi:docname="python-powered-portrait.svg" sodipodi:version="0.32" xmlns:rdf="http://www.w3.org/1999/02/22-rdf-syntax-ns#" xmlns:xap="http://ns.adobe.com/xap/1.0/" xmlns:xapGImg="http://ns.adobe.com/xap/1.0/g/img/" xmlns:svg="http://www.w3.org/2000/svg" xmlns:ns1="http://ns.adobe.com/Flows/1.0/" xmlns:ns0="http://ns.adobe.com/Variables/1.0/" xmlns:ns="http://ns.adobe.com/SaveForWeb/1.0/" xmlns:cc="http://web.resource.org/cc/" xmlns:dc="http://purl.org/dc/elements/1.1/" xmlns:inkscape="http://www.inkscape.org/namespaces/inkscape" xmlns:sodipodi="http://inkscape.sourceforge.net/DTD/sodipodi-0.dtd">
	<g id="g10990">
		<path id="path46" fill="#646464" d="M40.1,292.3c0-10.8-3.1-16.3-9.2-16.6c-2.4-0.1-4.8,0.3-7.1,1.2c-1.8,0.7-3.1,1.3-3.7,2v25.7
			c3.9,2.5,7.4,3.6,10.4,3.4C36.9,307.5,40.1,302.3,40.1,292.3z M47.7,292.7c0,5.5-1.3,10-3.9,13.6c-2.9,4.1-6.9,6.2-11.9,6.3
			c-3.8,0.1-7.8-1.1-11.9-3.6v23.3l-6.6-2.3v-51.8c1.1-1.3,2.5-2.5,4.2-3.4c3.9-2.3,8.7-3.5,14.3-3.5l0.1,0.1
			c5.1-0.1,9.1,2,11.8,6.3C46.4,281.6,47.7,286.6,47.7,292.7z"/>
		<path id="path48" fill="#646464" d="M87.9,308c0,7.3-0.7,12.4-2.2,15.2c-1.5,2.8-4.3,5.1-8.4,6.7c-3.4,1.3-7,2-10.9,2.2l-1.1-4.1
			c4-0.5,6.8-1.1,8.4-1.6c3.2-1.1,5.4-2.7,6.6-5c1-1.8,1.4-5.3,1.4-10.4v-1.7c-4.5,2-9.2,3.1-14.1,3.1c-3.2,0-6.1-1-8.6-3.1
			c-2.8-2.2-4.1-5-4.1-8.5v-27.4l6.6-2.3v27.6c0,2.9,0.9,5.2,2.8,6.8c1.9,1.6,4.4,2.4,7.4,2.3c3-0.1,6.2-1.2,9.7-3.5v-32.1h6.6V308z
			"/>
		<path id="path50" fill="#646464" d="M113.5,312.3c-0.8,0.1-1.5,0.1-2.2,0.1c-3.7,0-6.6-0.9-8.7-2.7c-2.1-1.8-3.1-4.2-3.1-7.4
			v-25.9h-4.5v-4.1h4.5v-11l6.6-2.3v13.3h7.4v4.1h-7.4v25.7c0,2.5,0.7,4.2,2,5.2c1.1,0.8,2.9,1.3,5.4,1.4V312.3z"/>
		<path id="path52" fill="#646464" d="M153.4,311.7h-6.6v-25.4c0-2.6-0.6-4.8-1.8-6.7c-1.4-2.1-3.3-3.2-5.8-3.2
			c-3,0-6.8,1.6-11.3,4.8v30.4h-6.6V251l6.6-2.1v27.6c4.2-3.1,8.8-4.6,13.8-4.6c3.5,0,6.3,1.2,8.5,3.5c2.2,2.3,3.2,5.3,3.2,8.7
			V311.7L153.4,311.7z"/>
		<path id="path54" fill="#646464" d="M188.3,291.2c0-4.1-0.8-7.5-2.3-10.2c-1.9-3.3-4.7-5-8.6-5.2c-7.2,0.4-10.8,5.6-10.8,15.5
			c0,4.5,0.7,8.3,2.3,11.4c1.9,3.9,4.8,5.8,8.7,5.7C184.7,308.3,188.3,302.6,188.3,291.2z M195.5,291.3c0,5.9-1.5,10.8-4.5,14.7
			c-3.3,4.4-7.9,6.6-13.7,6.6c-5.8,0-10.3-2.2-13.5-6.6c-2.9-3.9-4.4-8.8-4.4-14.7c0-5.5,1.6-10.2,4.8-14c3.4-4,7.8-6,13.2-6
			c5.5,0,9.9,2,13.3,6C193.9,281.1,195.5,285.8,195.5,291.3z"/>
		<path id="path56" fill="#646464" d="M233.2,311.7h-6.6v-26.8c0-2.9-0.9-5.2-2.7-6.9c-1.8-1.6-4.1-2.4-7.1-2.4
			c-3.1,0.1-6.1,1.1-8.9,3.1v33h-6.6v-33.9c3.8-2.8,7.3-4.6,10.4-5.4c3-0.8,5.6-1.2,7.9-1.2c1.6,0,3,0.2,4.4,0.5
			c2.6,0.6,4.7,1.7,6.3,3.3c1.8,1.8,2.7,4,2.7,6.5V311.7z"/>
	</g>
</g>
<g id="g7640" transform="translate(638.5845,497.4187)">
	<g id="g8691" transform="matrix(1.772991,0,0,1.772991,-1062.907,-953.6594)">
		
			<linearGradient id="path7990_1_" gradientUnits="userSpaceOnUse" x1="259.118" y1="529.1159" x2="142.0557" y2="530.0466" gradientTransform="matrix(1.5208 0 0 -1.5208 -54.339 1112.6748)">
			<stop  offset="0" style="stop-color:#366A96"/>
			<stop  offset="1" style="stop-color:#3679B0"/>
		</linearGradient>
		<path id="path7990" fill="url(#path7990_1_)" d="M274.3,275.5c0-9.4,2.5-14.4,16.4-16.9c9.4-1.6,21.5-1.9,32.7,0
			c8.9,1.5,16.4,8.1,16.4,16.9v30.9c0,9-7.3,16.5-16.4,16.5h-32.7c-11.1,0-20.4,9.5-20.4,20.2v14.8H259c-9.5,0-15-6.9-17.4-16.5
			c-3.1-12.9-3-20.6,0-32.9c2.6-10.8,10.9-16.5,20.4-16.5h12.3H307v-4.1h-32.7V275.5L274.3,275.5z"/>
		
			<linearGradient id="path7992_1_" gradientUnits="userSpaceOnUse" x1="282.2815" y1="506.3906" x2="50.5539" y2="506.3906" gradientTransform="matrix(1.5208 0 0 -1.5208 -54.339 1112.6748)">
			<stop  offset="0" style="stop-color:#FFC836"/>
			<stop  offset="1" style="stop-color:#FFE873"/>
		</linearGradient>
		<path id="path7992" fill="url(#path7992_1_)" d="M339.7,374.2c0,9.4-8.1,14.1-16.4,16.5c-12.4,3.6-22.3,3-32.7,0
			c-8.6-2.5-16.4-7.7-16.4-16.5v-30.9c0-8.9,7.4-16.5,16.4-16.5h32.7c10.9,0,20.4-9.4,20.4-20.6V292h12.3c9.5,0,14,7.1,16.4,16.5
			c3.3,13,3.4,22.8,0,32.9c-3.3,9.9-6.8,16.5-16.4,16.5h-16.4H307v4.1h32.7V374.2z"/>
		<path id="path7994" fill="#FFFFFF" d="M282.5,273.5c0-3.4,2.7-6.2,6.1-6.2c3.4,0,6.1,2.8,6.1,6.2c0,3.4-2.7,6.2-6.1,6.2
			C285.2,279.6,282.5,276.9,282.5,273.5z"/>
		<path id="path7996" fill="#FFFFFF" d="M319.3,376.3c0-3.4,2.7-6.2,6.1-6.2c3.4,0,6.1,2.8,6.1,6.2c0,3.4-2.7,6.2-6.1,6.2
			C322.1,382.5,319.3,379.7,319.3,376.3z"/>
	</g>
</g>
</svg>
