<?xml version="1.0" encoding="utf-8"?>
<!-- Generator: Adobe Illustrator 18.1.1, SVG Export Plug-In . SVG Version: 6.00 Build 0)  -->
<svg version="1.1" id="Layer_1" xmlns="http://www.w3.org/2000/svg" xmlns:xlink="http://www.w3.org/1999/xlink" x="0px" y="0px"
	 viewBox="0 0 512.8 513" enable-background="new 0 0 512.8 513" xml:space="preserve">
<g>
	<g>
		<path fill="none" stroke="#000000" stroke-width="14" stroke-miterlimit="10" d="M366.5,159.1c15.9,9.3,29.7,20.7,42,33.9
			c25.4,27.2,41,59.1,46.2,96.1c0.4,3,1.1,6,0.8,8.9c-0.7,7,3,11.8,7.3,16.6c5.1,5.7,9.8,11.8,14.7,17.7c4.6,5.6,4.7,12.1,0.1,17.8
			c-7.2,8.9-15.5,16.1-26,21.3c-26.7,13.3-52.9,27.3-79.3,41.2c-5.7,3-11.7,4.5-18.2,4.5c-64.8,0-129.6,0-194.5,0
			c-6.1,0-11.8-1.3-17.3-4.2C113.9,398,85.5,383.1,57,368.4c-9-4.7-15.5-12-21.5-19.8c-3.9-5.1-3.3-11,0.8-16.1
			c6.4-7.9,12.9-15.7,19.4-23.5c1.3-1.5,2.3-3,2.4-5.2c2.7-51.4,25.1-93,63.7-126.4c5.7-4.9,11.7-9.4,18-13.5c3-2,6.2-3.9,9.9-6.3
			c2.2,9.8,4.3,19,6.3,28.3c8,36.5,15.6,73.2,24.2,109.6c5.1,21.5,18.1,36.4,40.8,40.9c1.8,0.4,3.6,0.5,5.5,0.5
			c21.2,0,42.3,0.2,63.5,0c21.1-0.2,40.2-16.6,46.1-39.9c4.1-16.4,7.5-33.1,11.1-49.7c6.1-27.9,12.2-55.9,18.3-83.8
			C365.6,162.2,366.1,160.8,366.5,159.1z"/>
		<path fill="none" stroke="#000000" stroke-width="14" stroke-miterlimit="10" d="M257.2,289c-9.8,0-19.7,0-29.5,0
			c-12,0-21.7-7.2-24.6-18.8c-9.8-39-19.5-78.1-29-117.2c-3.6-14.8,3.9-27.3,18.8-31.3c43.1-11.6,86.2-11.6,129.2,0
			c14.8,4,22.3,16.6,18.7,31.4c-9.5,39.1-19.2,78.1-29,117.2c-2.8,11.2-12.5,18.6-24.2,18.7C277.5,289.1,267.3,289,257.2,289z"/>
	</g>
</g>
</svg>
