<?xml version="1.0" encoding="utf-8"?>
<!-- Generator: Adobe Illustrator 18.1.1, SVG Export Plug-In . SVG Version: 6.00 Build 0)  -->
<svg version="1.1" id="Layer_1" xmlns="http://www.w3.org/2000/svg" xmlns:xlink="http://www.w3.org/1999/xlink" x="0px" y="0px"
	 viewBox="0 0 76.2 72.5" enable-background="new 0 0 76.2 72.5" xml:space="preserve">
<g>
	<path d="M24.1,20.2h-3.9c-0.8,0-1.4-0.2-1.7-0.5c-0.3-0.4-0.5-1-0.5-1.9c0-0.9,0.2-1.5,0.5-1.9c0.3-0.4,0.9-0.5,1.7-0.5h12.4
		c0.8,0,1.4,0.2,1.7,0.5c0.3,0.4,0.5,1,0.5,1.9c0,0.9-0.2,1.5-0.5,1.9c-0.3,0.4-0.9,0.5-1.7,0.5h-3.2V35l15.3-14.8h-2.4
		c-0.8,0-1.4-0.2-1.7-0.5c-0.3-0.4-0.5-1-0.5-1.9c0-0.9,0.2-1.5,0.5-1.9c0.3-0.4,0.9-0.5,1.7-0.5h11.4c0.8,0,1.4,0.2,1.7,0.5
		c0.3,0.4,0.5,1,0.5,1.9c0,0.9-0.2,1.5-0.5,1.9c-0.3,0.4-0.9,0.5-1.7,0.5h-2L36.7,34.5c1.6-0.1,3.1,0.1,4.5,0.6
		c1.4,0.5,2.6,1.5,3.7,2.9c0.7,0.9,1.2,1.8,1.8,2.9c0.5,1.1,1,2.1,1.4,3.2c0.4,1.1,0.8,2.1,1.2,3.1s0.8,1.9,1.2,2.7s0.9,1.4,1.4,1.8
		c0.5,0.5,1.1,0.7,1.8,0.7h1c0.8,0,1.4,0.2,1.7,0.5c0.3,0.4,0.5,1,0.5,1.9c0,0.9-0.2,1.5-0.5,1.9c-0.3,0.4-0.9,0.5-1.7,0.5h-2.9
		c-1.1,0-2.1-0.4-3.1-1.1c-1-0.7-2-2-2.9-3.8c-0.5-0.9-0.9-1.9-1.3-2.9c-0.4-1-0.8-2-1.2-3c-0.4-1-0.8-2-1.2-2.9
		c-0.4-0.9-0.9-1.7-1.4-2.5c-0.6-0.8-1.3-1.4-2.1-1.9c-0.8-0.4-1.8-0.7-2.9-0.7c-1,0-1.9,0.2-2.8,0.5c-0.9,0.3-1.7,0.9-2.5,1.6
		l-1.1,1v10.8H35c0.8,0,1.4,0.2,1.7,0.5c0.3,0.4,0.5,1,0.5,1.9c0,0.9-0.2,1.5-0.5,1.9c-0.3,0.4-0.9,0.5-1.7,0.5H20.1
		c-0.8,0-1.4-0.2-1.7-0.5c-0.3-0.4-0.5-1-0.5-1.9c0-0.9,0.2-1.5,0.5-1.9c0.3-0.4,0.9-0.5,1.7-0.5h3.9V20.2z"/>
</g>
<g>
	<polygon points="5,21.2 0,21.2 0,0 21.2,0 21.2,5 5,5 	"/>
</g>
<g>
	<polygon points="76.2,72.6 0,72.5 0,67.5 71.2,67.6 71.2,0 76.2,0 	"/>
</g>
<path fill="none" stroke="#000000" stroke-width="2" stroke-miterlimit="10" d="M3.3,1"/>
<g>
	<rect x="12.1" y="58.5" width="52.1" height="2"/>
</g>
<line fill="none" stroke="#000000" stroke-width="2" stroke-miterlimit="10" x1="12" y1="13.1" x2="64.1" y2="13.1"/>
<path fill="#272A38" d="M36.7,56.7c0.3-0.4,0.5-1,0.5-1.9c0-0.9-0.2-1.5-0.5-1.9c-0.3-0.4-0.9-0.5-1.7-0.5h-5.7V41.6l1.1-1
	c0.7-0.7,1.5-1.2,2.5-1.6c0.9-0.3,1.9-0.5,2.8-0.5c1.1,0,2.1,0.2,2.9,0.7c0.8,0.4,1.5,1.1,2.1,1.9c0.5,0.7,1,1.5,1.4,2.5
	c0.4,0.9,0.8,1.9,1.2,2.9c0.4,1,0.8,2,1.2,3c0.4,1,0.8,2,1.3,2.9c0.9,1.8,1.9,3.1,2.9,3.8c1,0.7,2.1,1.1,3.1,1.1h2.9
	c0.8,0,1.4-0.2,1.7-0.5c0.3-0.4,0.5-1,0.5-1.9c0-0.9-0.2-1.5-0.5-1.9c-0.3-0.4-0.9-0.5-1.7-0.5h-1c-0.7,0-1.3-0.2-1.8-0.7
	c-0.5-0.5-1-1.1-1.4-1.8s-0.8-1.7-1.2-2.7s-0.8-2.1-1.2-3.1c-0.4-1.1-0.9-2.1-1.4-3.2c-0.5-1.1-1.1-2-1.8-2.9
	c-1.1-1.4-2.3-2.4-3.7-2.9c-1.4-0.5-2.9-0.7-4.5-0.6l7.3-7c-4.9,1.3-9.9,3.8-14.3,7.1L29.3,35V35c-1.9,1.5-3.7,3.2-5.3,5v12.5h-3.9
	c-0.8,0-1.4,0.2-1.7,0.5c-0.3,0.4-0.5,1-0.5,1.9c0,0.9,0.2,1.5,0.5,1.9c0.3,0.4,0.9,0.5,1.7,0.5H35C35.8,57.2,36.4,57,36.7,56.7z"/>
</svg>
