<?xml version="1.0" encoding="utf-8"?>
<!-- Generator: Adobe Illustrator 18.1.1, SVG Export Plug-In . SVG Version: 6.00 Build 0)  -->
<svg version="1.1" id="Layer_1" xmlns="http://www.w3.org/2000/svg" xmlns:xlink="http://www.w3.org/1999/xlink" x="0px" y="0px"
	 viewBox="0 0 52.8 48.9" enable-background="new 0 0 52.8 48.9" xml:space="preserve">
<path d="M42.3,9.8l-4.6,4.3c1.5,2.6,2.3,5.8,2.3,9c0,9.6-2.1,18.1-13.3,18.1H18v-8.9v-3l5.4-5l5-4.4C38.3,11,40.8,8,42.6,8h1.6
	l2.3-2.1V4.1H28.3v4h4.2c0.7,0,1.1,0.5,1.1,1c0,1.2-5.5,5.5-15.5,15V10.1C18,8.6,18.9,8,20.4,8h4.2v-4H4.7v4h4.5c1.2,0,2.1,1,2,2.2
	l0,28.4v0.3c0,1.2-0.9,2.2-2.1,2.2H8.4l-3.8,0v3.5v0.4h24.3c11.7,0,18.8-9.4,18.8-21.5C47.7,18.4,45.7,13.4,42.3,9.8z"/>
</svg>
