<?xml version="1.0" encoding="utf-8"?>
<!-- Generator: Adobe Illustrator 18.1.1, SVG Export Plug-In . SVG Version: 6.00 Build 0)  -->
<svg version="1.1" id="Layer_1" xmlns="http://www.w3.org/2000/svg" xmlns:xlink="http://www.w3.org/1999/xlink" x="0px" y="0px"
	 viewBox="0 0 88.6 74.3" enable-background="new 0 0 88.6 74.3" xml:space="preserve">
<path fill="#FFFFFF" d="M76,8.9C66.6,1,56.1,0.2,48.7,0.2H33.6v24.7L11.3,0H0l33.6,37.1v4.6L1.1,74h11.1l21.4-21.5v21.7h15
	c13.2,0,20.3-2.8,27.1-8.5c5.3-4.6,13-12.9,13-28.4C88.6,24,82.7,14.5,76,8.9z M43.7,8v23.9l-1.9,1.9V8H43.7z M41.8,44.2l1.9-2v24.2
	h-1.9V44.2z M70.2,59.8c-6.1,5-12.8,6.3-18.3,6.6V8.1C69,9.3,80.2,20.5,80.2,37.3C80.2,47.8,75.7,55.2,70.2,59.8z"/>
</svg>
