<?xml version="1.0" encoding="utf-8"?>
<!-- Generator: Adobe Illustrator 18.1.1, SVG Export Plug-In . SVG Version: 6.00 Build 0)  -->
<svg version="1.1" id="Layer_1" xmlns="http://www.w3.org/2000/svg" xmlns:xlink="http://www.w3.org/1999/xlink" x="0px" y="0px"
	 viewBox="0 210.6 612 581.4" enable-background="new 0 210.6 612 581.4" xml:space="preserve">
<g>
	<path fill="#25252B" d="M535.5,291.2l-66.3,61.2c21.4,36.7,32.6,82.6,32.6,127.5c0,135.7-30.6,256-188.7,256H190.7V609.4v-42.8
		l77.5-70.4l71.4-63.2C478.3,308.6,514,266.7,539.5,266.7H562l32.6-30.6v-25.5h-259v56.1h60.2c10.2,0,15.3,7.1,15.3,14.3
		c0,17.3-77.5,77.5-220.3,213.2V296.3c0-22.4,11.2-30.6,32.6-30.6h59.2v-55.1H1v56.1h63.2c16.3,0,29.6,14.3,28.6,30.6v402.9v5.1
		c0,16.3-12.2,30.6-29.6,30.6H54H0v50v6.1h344.8C511.1,792,612,659.4,612,487C612,413.6,583.4,343.2,535.5,291.2z"/>
	<path fill="#5D5D88" d="M557.9,320.8c-25.5,4.1-51,11.2-75.5,19.4l-13.3,12.2c21.4,36.7,32.6,82.6,32.6,127.5
		c0,135.7-30.6,256-188.7,256H190.7V609.4v-42.8l77.5-70.4l71.4-63.2c28.6-25.5,53-47.9,73.4-67.3c-30.6,14.3-59.2,28.6-85.7,41.8
		c-36.7,19.4-84.7,47.9-133.6,82.6c-1,1-2,2-3.1,3.1v-1c-33.7,24.5-68.3,53-97.9,82.6v124.4v5.1c0,16.3-12.2,30.6-29.6,30.6h-9.2H0
		v50v7.1h344.8C511.1,792,612,659.4,612,487C612,426.8,592.6,367.7,557.9,320.8z"/>
	<path fill="#FFFFFF" d="M412.1,366.7c-45.9,17.3-73.4,35.7-85.7,41.8c-36.7,19.4-84.7,47.9-133.6,82.6c-1,1-2,2-3.1,3.1v-1
		c-33.7,24.5-67.3,52-96.9,81.6v76.1c0,0,69.5-84.3,182.6-176"/>
</g>
</svg>
