<?xml version="1.0" encoding="utf-8"?>
<!-- Generator: Adobe Illustrator 18.1.1, SVG Export Plug-In . SVG Version: 6.00 Build 0)  -->
<svg version="1.1" id="Layer_1" xmlns="http://www.w3.org/2000/svg" xmlns:xlink="http://www.w3.org/1999/xlink" x="0px" y="0px"
	 viewBox="0 0 52.8 48.9" enable-background="new 0 0 52.8 48.9" xml:space="preserve">
<rect x="0.1" y="46.7" fill="#262937" width="52.7" height="2.2"/>
<g>
	<rect x="0.1" y="46.4" width="52.7" height="2"/>
</g>
<g>
	<rect x="0" width="52.7" height="2"/>
</g>
<path fill="#262937" d="M7.9,27.7c-2.1,0-3.8-1.7-3.8-3.8c0-2.1,1.7-3.8,3.8-3.8v-1.3c-2.8,0-5,2.2-5,5s2.2,5,5,5V27.7z"/>
<path fill="#262937" d="M8,29.9c-3.3,0-6-2.7-6-6c0-3.3,2.7-6,6-6v-2c-4.4,0-7.9,3.5-7.9,7.9s3.5,7.9,7.9,7.9V29.9z"/>
<path d="M51.5,15.4c-0.9-2.6-2.1-4.8-3.8-6.6c-1.1-1.3-2.5-2.3-3.9-3.2c0,0,0,0,0,0c0-0.9-0.2-1.5-0.5-1.9c-0.3-0.4-0.9-0.5-1.7-0.5
	h-7.2h-4.2h-9.6h-2.8H8.1c-0.8,0-1.4,0.2-1.7,0.5c-0.3,0.4-0.5,1-0.5,1.9c0,0.9,0.2,1.5,0.5,1.9c0.3,0.4,0.9,0.5,1.7,0.5H12v32.2
	H8.1c-0.8,0-1.4,0.2-1.7,0.5c-0.3,0.4-0.5,1-0.5,1.9c0,0.9,0.2,1.5,0.5,1.9C6.7,44.9,7.3,45,8.1,45h9.7H23h11.3
	c1.3,0,2.5-0.1,3.7-0.3c0.6,0.2,1.1,0.3,1.7,0.3h2.9c0.8,0,1.4-0.2,1.7-0.5c0.3-0.4,0.5-1,0.5-1.9c0-0.2,0-0.4,0-0.6
	c1.1-0.7,2-1.6,2.9-2.5c1.6-1.8,2.9-4,3.8-6.6c0.9-2.6,1.3-5.5,1.3-8.8C52.8,20.9,52.4,18,51.5,15.4z M30.2,8.1h2.4L27,13.5V8.1
	H30.2z M20.6,8.1h1.2v10.5l-4.4,4.3V8.1h0.5H20.6z M17.8,40.3h-0.5V29.4l1.1-1c0.7-0.7,1.5-1.2,2.5-1.6c0.3-0.1,0.6-0.2,0.9-0.3
	v13.7H17.8z M27,40.3v-13c0.7,0.4,1.2,1,1.7,1.6c0.5,0.7,1,1.5,1.4,2.5c0.4,0.9,0.8,1.9,1.2,2.9c0.4,1,0.8,2,1.2,3
	c0.4,1,0.8,2,1.3,2.9c0,0,0,0.1,0.1,0.1c-0.1,0-0.1,0-0.2,0H27z M46.3,31.1c-0.7,2-1.6,3.7-2.8,5c-1.1,1.3-2.5,2.3-4.1,2.9
	c-0.3-0.4-0.6-0.8-0.9-1.4c-0.4-0.8-0.8-1.7-1.2-2.7s-0.8-2.1-1.2-3.1c-0.4-1.1-0.9-2.1-1.4-3.2c-0.5-1.1-1.1-2-1.8-2.9
	c-1.1-1.4-2.3-2.4-3.7-2.9c-0.7-0.3-1.4-0.4-2.2-0.5v-2.3L38.7,9C38.9,9,39,9.1,39.2,9.1c1.7,0.7,3.1,1.7,4.3,3.1
	c1.2,1.4,2.1,3,2.8,5c0.7,2,1,4.3,1,6.9C47.3,26.8,47,29.1,46.3,31.1z"/>
<path fill="#272A38" d="M42.6,45c0.8,0,1.4-0.2,1.7-0.5c0.3-0.4,0.5-1,0.5-1.9c0-0.2,0-0.4,0-0.6c1.1-0.7,2-1.6,2.9-2.5
	c1.6-1.8,2.9-4,3.8-6.6c0.9-2.6,1.3-5.5,1.3-8.8c0-3.3-0.4-6.2-1.3-8.8c-0.7-1.9-1.5-3.6-2.6-5.1c-2.1,0.2-4.2,0.6-6.2,1
	c0.3,0.3,0.6,0.5,0.8,0.8c1.2,1.4,2.1,3,2.8,5c0.7,2,1,4.3,1,6.9c0,2.6-0.3,4.9-1,6.9c-0.7,2-1.6,3.7-2.8,5
	c-1.1,1.3-2.5,2.3-4.1,2.9c-0.3-0.4-0.6-0.8-0.9-1.4c-0.4-0.8-0.8-1.7-1.2-2.7s-0.8-2.1-1.2-3.1c-0.4-1.1-0.9-2.1-1.4-3.2
	c-0.5-1.1-1.1-2-1.8-2.9c-1.1-1.4-2.3-2.4-3.7-2.9c-0.7-0.3-1.4-0.4-2.2-0.5v-2.3l6-5.8c-7.8,3.1-15.1,7.7-21,12.7v13.1H8.1
	c-0.8,0-1.4,0.2-1.7,0.5c-0.3,0.4-0.5,1-0.5,1.9c0,0.9,0.2,1.5,0.5,1.9C6.7,44.9,7.3,45,8.1,45h9.7H23 M21.7,40.3h-3.9h-0.5V29.4
	l1.1-1c0.7-0.7,1.5-1.2,2.5-1.6c0.3-0.1,0.6-0.2,0.9-0.3V40.3z M33.5,40.3H27v-13c0.7,0.4,1.2,1,1.7,1.6c0.5,0.7,1,1.5,1.4,2.5
	c0.4,0.9,0.8,1.9,1.2,2.9c0.4,1,0.8,2,1.2,3c0.4,1,0.8,2,1.3,2.9c0,0,0,0.1,0.1,0.1C33.7,40.3,33.6,40.3,33.5,40.3z"/>
<rect x="-22.6" y="9.7" fill="#272A38" width="5" height="5"/>
</svg>
